<?xml version="1.0" standalone="no"?>
<!DOCTYPE svg PUBLIC "-//W3C//DTD SVG 20010904//EN"
 "http://www.w3.org/TR/2001/REC-SVG-20010904/DTD/svg10.dtd">
<svg version="1.0" xmlns="http://www.w3.org/2000/svg"
 width="386.000000pt" height="386.000000pt" viewBox="0 0 386.000000 386.000000"
 preserveAspectRatio="xMidYMid meet">
<metadata>
Created by potrace 1.11, written by Peter Selinger 2001-2013
</metadata>
<g transform="translate(0.000000,386.000000) scale(0.100000,-0.100000)"
fill="#000000" stroke="none">
<path d="M1140 3682 c-32 -11 -67 -37 -121 -91 -74 -75 -137 -151 -123 -151 3
0 2 -6 -4 -12 -9 -12 -12 -24 -26 -93 -3 -11 -11 -51 -20 -90 -51 -241 -37
-446 50 -702 20 -58 74 -117 127 -139 55 -22 186 -26 257 -7 199 51 334 265
384 608 8 53 9 233 2 265 -3 14 -9 39 -12 55 -14 67 -82 184 -148 256 -78 83
-264 135 -366 101z m173 -314 c127 -133 170 -292 113 -413 -27 -59 -144 -182
-183 -191 -32 -8 -68 10 -96 48 -18 24 -20 43 -20 170 -1 152 17 262 55 348
42 93 71 101 131 38z"/>
<path d="M2486 3608 c-100 -21 -217 -114 -281 -225 -63 -107 -91 -280 -65
-410 49 -254 233 -479 409 -500 50 -6 147 15 208 44 59 27 140 169 157 273 3
19 8 46 12 60 13 55 5 215 -14 280 -61 209 -180 407 -273 455 -43 23 -108 32
-153 23z m125 -251 c43 -28 64 -71 85 -177 29 -143 12 -297 -46 -422 -31 -66
-89 -12 -125 115 -19 65 -25 258 -12 367 17 148 29 163 98 117z"/>
<path d="M3295 2143 c-100 -18 -171 -60 -209 -126 -30 -53 -39 -105 -38 -232
1 -176 35 -326 97 -430 77 -127 147 -173 290 -189 22 -2 54 -9 72 -14 89 -28
211 66 288 223 45 91 55 140 51 250 -6 201 -118 396 -271 473 -76 38 -201 58
-280 45z m184 -196 c123 -60 182 -168 180 -331 -2 -159 -13 -169 -147 -122
-103 36 -145 75 -169 155 -33 116 -11 295 40 318 25 12 35 10 96 -20z"/>
<path d="M348 2084 c-90 -27 -229 -183 -286 -321 -49 -116 -64 -270 -36 -356
24 -71 111 -157 191 -187 109 -41 246 -7 337 83 54 54 111 163 131 250 17 74
14 247 -5 317 -28 102 -84 194 -128 211 -44 17 -153 18 -204 3z m165 -171 c61
-65 87 -184 66 -304 -13 -71 -45 -109 -96 -116 -71 -9 -143 43 -174 124 -18
47 -13 127 11 174 31 59 118 149 145 149 12 0 33 -12 48 -27z"/>
<path d="M1795 1993 c-356 -98 -511 -184 -703 -390 -114 -123 -122 -132 -122
-139 0 -3 -13 -23 -28 -43 -48 -62 -134 -207 -213 -361 -36 -70 -92 -201 -105
-247 -24 -83 -22 -204 5 -286 72 -215 276 -373 476 -368 166 5 192 9 266 41
187 82 308 165 388 268 42 54 77 72 143 74 70 2 130 -16 203 -60 53 -32 131
-87 145 -102 15 -17 142 -89 190 -108 84 -32 118 -39 210 -41 157 -3 301 49
361 132 76 103 103 205 93 341 -8 124 -37 226 -91 326 -82 149 -102 192 -144
294 -90 223 -150 298 -354 450 -131 98 -223 153 -301 180 -122 43 -333 62
-419 39z m213 -297 c40 -4 97 -16 127 -27 67 -25 249 -159 281 -208 14 -20 60
-91 104 -159 44 -67 119 -174 167 -238 49 -63 101 -134 116 -157 48 -72 86
-232 67 -282 -13 -35 -98 -94 -137 -95 -39 0 -220 62 -294 102 -31 16 -108 70
-170 119 -63 50 -129 97 -148 105 -19 8 -55 37 -81 65 -40 43 -52 51 -73 45
-15 -3 -29 -18 -37 -36 -8 -19 -22 -32 -39 -36 -14 -3 -46 -12 -70 -20 -86
-27 -93 -22 -196 146 -37 61 -74 114 -83 119 -41 21 -72 -15 -72 -83 0 -52 5
-63 88 -208 l33 -58 -27 -25 c-39 -36 -73 -32 -115 13 -93 97 -138 183 -154
287 -4 28 -11 57 -16 66 -12 23 -60 30 -86 13 -20 -12 -23 -12 -32 4 -27 51
139 270 324 427 64 54 80 63 195 101 100 33 145 36 328 20z m-807 -818 c13
-29 52 -94 86 -145 56 -83 60 -93 42 -98 -29 -10 -85 13 -113 45 -30 36 -58
119 -61 179 -5 86 12 93 46 19z"/>
</g>
</svg>
